<svg width="75" height="75" viewBox="0 0 75 75" fill="none" xmlns="http://www.w3.org/2000/svg">
<g filter="url(#filter0_i_1226_599)">
<rect width="75" height="75" rx="37.5" fill="#F6EDDF"/>
<path d="M52.1001 40.3C51.9951 40.3788 51.8755 40.4361 51.7483 40.4687C51.6211 40.5013 51.4887 40.5085 51.3587 40.49C51.2287 40.4714 51.1036 40.4274 50.9906 40.3605C50.8776 40.2936 50.7789 40.2051 50.7001 40.1C50.0974 39.2898 49.3129 38.6325 48.4097 38.1809C47.5065 37.7293 46.5099 37.4961 45.5001 37.5C45.3035 37.5 45.1112 37.442 44.9474 37.3333C44.7835 37.2246 44.6553 37.0699 44.5789 36.8888C44.527 36.7657 44.5002 36.6336 44.5002 36.5C44.5002 36.3665 44.527 36.2343 44.5789 36.1113C44.6553 35.9301 44.7835 35.7755 44.9474 35.6668C45.1112 35.558 45.3035 35.5 45.5001 35.5C46.0612 35.5 46.6111 35.3426 47.0872 35.0457C47.5633 34.7488 47.9466 34.3244 48.1936 33.8206C48.4406 33.3168 48.5413 32.7538 48.4844 32.1956C48.4275 31.6374 48.2151 31.1064 47.8715 30.6628C47.5279 30.2192 47.0668 29.8809 46.5405 29.6863C46.0143 29.4917 45.444 29.4485 44.8944 29.5617C44.3449 29.675 43.8381 29.9401 43.4317 30.3269C43.0252 30.7137 42.7354 31.2067 42.5951 31.75C42.5623 31.8772 42.5047 31.9967 42.4257 32.1017C42.3467 32.2067 42.2478 32.2951 42.1346 32.3618C42.0214 32.4285 41.8962 32.4723 41.7661 32.4907C41.636 32.5091 41.5036 32.5016 41.3764 32.4688C41.2492 32.4359 41.1297 32.3784 41.0247 32.2994C40.9197 32.2203 40.8313 32.1214 40.7646 32.0083C40.6979 31.8951 40.6541 31.7699 40.6357 31.6398C40.6174 31.5097 40.6248 31.3772 40.6576 31.25C40.8523 30.4967 41.2202 29.7991 41.7319 29.213C42.2436 28.6268 42.885 28.1681 43.6052 27.8735C44.3254 27.5788 45.1043 27.4563 45.8802 27.5157C46.656 27.5751 47.4073 27.8147 48.0742 28.2155C48.7412 28.6164 49.3053 29.1673 49.7219 29.8245C50.1384 30.4818 50.3958 31.2272 50.4735 32.0014C50.5513 32.7756 50.4473 33.5573 50.1698 34.2842C49.8923 35.0112 49.449 35.6633 48.8751 36.1888C50.2349 36.7775 51.417 37.7118 52.3039 38.8988C52.3827 39.0041 52.4399 39.1239 52.4723 39.2514C52.5047 39.3789 52.5117 39.5115 52.4927 39.6417C52.4738 39.7718 52.4294 39.897 52.362 40.01C52.2947 40.1229 52.2057 40.2215 52.1001 40.3ZM45.3651 48C45.4375 48.1138 45.4861 48.2411 45.508 48.3742C45.5299 48.5073 45.5246 48.6434 45.4925 48.7744C45.4604 48.9054 45.4022 49.0286 45.3213 49.1365C45.2403 49.2444 45.1384 49.3348 45.0217 49.4023C44.9049 49.4698 44.7757 49.5129 44.6418 49.5292C44.5079 49.5455 44.3721 49.5345 44.2426 49.4969C44.1131 49.4593 43.9925 49.3959 43.8881 49.3105C43.7837 49.2251 43.6977 49.1195 43.6351 49C43.0052 47.9334 42.108 47.0494 41.0322 46.4353C39.9563 45.8212 38.7389 45.4982 37.5001 45.4982C36.2613 45.4982 35.044 45.8212 33.9681 46.4353C32.8922 47.0494 31.9951 47.9334 31.3651 49C31.3026 49.1195 31.2166 49.2251 31.1122 49.3105C31.0078 49.3959 30.8872 49.4593 30.7577 49.4969C30.6281 49.5345 30.4924 49.5455 30.3585 49.5292C30.2246 49.5129 30.0954 49.4698 29.9786 49.4023C29.8618 49.3348 29.7599 49.2444 29.679 49.1365C29.5981 49.0286 29.5399 48.9054 29.5078 48.7744C29.4757 48.6434 29.4704 48.5073 29.4923 48.3742C29.5142 48.2411 29.5628 48.1138 29.6351 48C30.6046 46.3342 32.0829 45.0234 33.8526 44.26C32.8568 43.4976 32.1249 42.4422 31.7599 41.2423C31.3949 40.0424 31.415 38.7583 31.8175 37.5704C32.22 36.3825 32.9847 35.3507 34.004 34.6199C35.0233 33.889 36.2459 33.496 37.5001 33.496C38.7543 33.496 39.977 33.889 40.9963 34.6199C42.0156 35.3507 42.7802 36.3825 43.1827 37.5704C43.5853 38.7583 43.6054 40.0424 43.2404 41.2423C42.8754 42.4422 42.1435 43.4976 41.1476 44.26C42.9174 45.0234 44.3956 46.3342 45.3651 48ZM37.5001 43.5C38.2913 43.5 39.0646 43.2654 39.7224 42.8259C40.3802 42.3864 40.8929 41.7617 41.1957 41.0308C41.4984 40.2998 41.5776 39.4956 41.4233 38.7197C41.2689 37.9437 40.888 37.231 40.3286 36.6716C39.7692 36.1122 39.0564 35.7312 38.2805 35.5769C37.5046 35.4225 36.7003 35.5018 35.9694 35.8045C35.2385 36.1073 34.6138 36.6199 34.1743 37.2777C33.7347 37.9355 33.5001 38.7089 33.5001 39.5C33.5001 40.5609 33.9216 41.5783 34.6717 42.3284C35.4219 43.0786 36.4393 43.5 37.5001 43.5ZM30.5001 36.5C30.5001 36.2348 30.3948 35.9804 30.2072 35.7929C30.0197 35.6054 29.7654 35.5 29.5001 35.5C28.939 35.5 28.3892 35.3426 27.9131 35.0457C27.437 34.7488 27.0537 34.3244 26.8067 33.8206C26.5597 33.3168 26.4589 32.7538 26.5159 32.1956C26.5728 31.6374 26.7852 31.1064 27.1288 30.6628C27.4724 30.2192 27.9335 29.8809 28.4598 29.6863C28.986 29.4917 29.5563 29.4485 30.1058 29.5617C30.6554 29.675 31.1622 29.9401 31.5686 30.3269C31.975 30.7137 32.2649 31.2067 32.4051 31.75C32.4714 32.0069 32.6371 32.227 32.8657 32.3618C33.0942 32.4966 33.367 32.5351 33.6239 32.4688C33.8808 32.4025 34.1009 32.2368 34.2357 32.0083C34.3705 31.7797 34.4089 31.5069 34.3426 31.25C34.1479 30.4967 33.7801 29.7991 33.2684 29.213C32.7567 28.6268 32.1152 28.1681 31.3951 27.8735C30.6749 27.5788 29.8959 27.4563 29.1201 27.5157C28.3442 27.5751 27.593 27.8147 26.926 28.2155C26.2591 28.6164 25.6949 29.1673 25.2784 29.8245C24.8619 30.4818 24.6045 31.2272 24.5267 32.0014C24.449 32.7756 24.5529 33.5573 24.8304 34.2842C25.1079 35.0112 25.5513 35.6633 26.1251 36.1888C24.7667 36.7781 23.586 37.7123 22.7001 38.8988C22.5408 39.1109 22.4724 39.3777 22.5097 39.6404C22.5471 39.903 22.6873 40.1401 22.8995 40.2994C23.1117 40.4587 23.3784 40.5272 23.6411 40.4898C23.9038 40.4524 24.1408 40.3122 24.3001 40.1C24.9029 39.2898 25.6874 38.6325 26.5906 38.1809C27.4938 37.7293 28.4904 37.4961 29.5001 37.5C29.7654 37.5 30.0197 37.3947 30.2072 37.2071C30.3948 37.0196 30.5001 36.7652 30.5001 36.5Z" fill="#535353"/>
</g>
<defs>
<filter id="filter0_i_1226_599" x="0" y="0" width="75" height="75" filterUnits="userSpaceOnUse" color-interpolation-filters="sRGB">
<feFlood flood-opacity="0" result="BackgroundImageFix"/>
<feBlend mode="normal" in="SourceGraphic" in2="BackgroundImageFix" result="shape"/>
<feColorMatrix in="SourceAlpha" type="matrix" values="0 0 0 0 0 0 0 0 0 0 0 0 0 0 0 0 0 0 127 0" result="hardAlpha"/>
<feOffset/>
<feGaussianBlur stdDeviation="1.25"/>
<feComposite in2="hardAlpha" operator="arithmetic" k2="-1" k3="1"/>
<feColorMatrix type="matrix" values="0 0 0 0 0.368627 0 0 0 0 0.368627 0 0 0 0 0.368627 0 0 0 0.4 0"/>
<feBlend mode="normal" in2="shape" result="effect1_innerShadow_1226_599"/>
</filter>
</defs>
</svg>
