<svg width="75" height="75" viewBox="0 0 75 75" fill="none" xmlns="http://www.w3.org/2000/svg">
<g filter="url(#filter0_i_1226_534)">
<rect width="75" height="75" rx="37.5" fill="#F6EDDF"/>
<path d="M42.055 34.6675L36.055 30.6675C35.9044 30.567 35.7293 30.5093 35.5484 30.5005C35.3675 30.4918 35.1877 30.5323 35.028 30.6177C34.8684 30.7032 34.7349 30.8304 34.6419 30.9858C34.5489 31.1412 34.4999 31.3189 34.5 31.5V39.5C34.4999 39.6811 34.5489 39.8588 34.6419 40.0142C34.7349 40.1696 34.8684 40.2968 35.028 40.3823C35.1877 40.4677 35.3675 40.5082 35.5484 40.4995C35.7293 40.4907 35.9044 40.433 36.055 40.3325L42.055 36.3325C42.1922 36.2412 42.3047 36.1175 42.3825 35.9722C42.4603 35.827 42.501 35.6648 42.501 35.5C42.501 35.3352 42.4603 35.173 42.3825 35.0278C42.3047 34.8825 42.1922 34.7588 42.055 34.6675ZM36.5 37.6313V33.375L39.6975 35.5L36.5 37.6313ZM48.5 26.5H26.5C25.9696 26.5 25.4609 26.7107 25.0858 27.0858C24.7107 27.4609 24.5 27.9696 24.5 28.5V42.5C24.5 43.0304 24.7107 43.5391 25.0858 43.9142C25.4609 44.2893 25.9696 44.5 26.5 44.5H48.5C49.0304 44.5 49.5391 44.2893 49.9142 43.9142C50.2893 43.5391 50.5 43.0304 50.5 42.5V28.5C50.5 27.9696 50.2893 27.4609 49.9142 27.0858C49.5391 26.7107 49.0304 26.5 48.5 26.5ZM48.5 42.5H26.5V28.5H48.5V42.5ZM50.5 47.5C50.5 47.7652 50.3946 48.0196 50.2071 48.2071C50.0196 48.3946 49.7652 48.5 49.5 48.5H25.5C25.2348 48.5 24.9804 48.3946 24.7929 48.2071C24.6054 48.0196 24.5 47.7652 24.5 47.5C24.5 47.2348 24.6054 46.9804 24.7929 46.7929C24.9804 46.6054 25.2348 46.5 25.5 46.5H49.5C49.7652 46.5 50.0196 46.6054 50.2071 46.7929C50.3946 46.9804 50.5 47.2348 50.5 47.5Z" fill="#535353"/>
</g>
<defs>
<filter id="filter0_i_1226_534" x="0" y="0" width="75" height="75" filterUnits="userSpaceOnUse" color-interpolation-filters="sRGB">
<feFlood flood-opacity="0" result="BackgroundImageFix"/>
<feBlend mode="normal" in="SourceGraphic" in2="BackgroundImageFix" result="shape"/>
<feColorMatrix in="SourceAlpha" type="matrix" values="0 0 0 0 0 0 0 0 0 0 0 0 0 0 0 0 0 0 127 0" result="hardAlpha"/>
<feOffset/>
<feGaussianBlur stdDeviation="1.25"/>
<feComposite in2="hardAlpha" operator="arithmetic" k2="-1" k3="1"/>
<feColorMatrix type="matrix" values="0 0 0 0 0.368627 0 0 0 0 0.368627 0 0 0 0 0.368627 0 0 0 0.4 0"/>
<feBlend mode="normal" in2="shape" result="effect1_innerShadow_1226_534"/>
</filter>
</defs>
</svg>
