<svg width="12" height="12" viewBox="0 0 12 12" fill="none" xmlns="http://www.w3.org/2000/svg">
<path d="M7.70813 4.93781L5.45813 3.43781C5.40164 3.40012 5.33597 3.37848 5.26815 3.3752C5.20032 3.37191 5.13287 3.3871 5.07301 3.41915C5.01314 3.4512 4.9631 3.49891 4.92822 3.55718C4.89335 3.61545 4.87496 3.68209 4.875 3.75V6.75C4.87496 6.81791 4.89335 6.88455 4.92822 6.94282C4.9631 7.00109 5.01314 7.04879 5.07301 7.08085C5.13287 7.1129 5.20032 7.12809 5.26815 7.1248C5.33597 7.12152 5.40164 7.09988 5.45813 7.06219L7.70813 5.56219C7.75956 5.52796 7.80174 5.48154 7.83092 5.42708C7.8601 5.37262 7.87537 5.31179 7.87537 5.25C7.87537 5.18821 7.8601 5.12738 7.83092 5.07292C7.80174 5.01846 7.75956 4.97204 7.70813 4.93781ZM5.625 6.04922V4.45312L6.82406 5.25L5.625 6.04922ZM10.125 1.875H1.875C1.67609 1.875 1.48532 1.95402 1.34467 2.09467C1.20402 2.23532 1.125 2.42609 1.125 2.625V7.875C1.125 8.07391 1.20402 8.26468 1.34467 8.40533C1.48532 8.54598 1.67609 8.625 1.875 8.625H10.125C10.3239 8.625 10.5147 8.54598 10.6553 8.40533C10.796 8.26468 10.875 8.07391 10.875 7.875V2.625C10.875 2.42609 10.796 2.23532 10.6553 2.09467C10.5147 1.95402 10.3239 1.875 10.125 1.875ZM10.125 7.875H1.875V2.625H10.125V7.875ZM10.875 9.75C10.875 9.84946 10.8355 9.94484 10.7652 10.0152C10.6948 10.0855 10.5995 10.125 10.5 10.125H1.5C1.40054 10.125 1.30516 10.0855 1.23483 10.0152C1.16451 9.94484 1.125 9.84946 1.125 9.75C1.125 9.65054 1.16451 9.55516 1.23483 9.48483C1.30516 9.41451 1.40054 9.375 1.5 9.375H10.5C10.5995 9.375 10.6948 9.41451 10.7652 9.48483C10.8355 9.55516 10.875 9.65054 10.875 9.75Z" fill="#646464"/>
</svg>
